<?xml version="1.0" encoding="UTF-8"?>
<svg width="1200pt" height="1200pt" version="1.1" viewBox="0 0 1200 1200" xmlns="http://www.w3.org/2000/svg">
 <path d="m941.99 753.51h-78.375l-33.359 23.91c-32.031 22.879-70.406 35.277-109.82 35.129h-41.18l-20.223 131.66c-0.88672 5.7578-5.9023 10.035-11.66 10.035h-165.31v-23.617h84.281l16.828-118.08c-46.051-0.44141-90.922-15.203-127.97-42.508l13.875-19.039c33.801 24.797 74.688 38.082 116.61 37.934h134.76c34.539 0 68.043-10.773 96.086-30.848l7.2344-5.1641c-78.082-3.8359-153.8-27.75-219.78-69.371-69.078-43.543-91.512-133.88-51.07-204.72v-131.22c0-43.246-34.98-78.375-78.227-78.375-37.785 0-70.258 27.012-77.047 64.355l-7.6758 41.918 13.727-0.003906c19.633 0 35.426 15.793 35.426 35.426 0 3.2461-0.44141 6.4961-1.3281 9.5938-0.14844 0.29688-0.14844 0.58984-0.29687 0.88672l-37.344 99.777c-27.895 74.391-8.5625 158.38 49.004 213.14l-16.234 17.121c-64.5-61.254-86.051-155.13-54.758-238.52l37.195-99.188c1.4766-6.3477-2.3633-12.695-8.707-14.168-0.88672-0.14844-1.7695-0.29688-2.8047-0.29688h-98.891c-15.941-0.14844-28.34 2.8047-40.887 10.035-4.1328 2.3633-9.4453 2.3633-13.285-0.58984-3.1016-2.3633-4.7227-5.7578-4.7227-9.4453l-0.007813-42.215c0-22.289 18.156-40.441 40.441-40.441 6.3477 0 12.547 1.4766 18.156 4.2812l4.8711 2.3633c16.973 8.4141 37.195 6.3477 52.102-5.4609l1.625-1.3281c11.957-9.5938 22.582-20.664 32.176-32.621 30.406-37.934 84.426-49.742 128.56-25.535 32.18 17.859 52.402 52.102 52.402 89.297v122.66c42.953 1.7695 85.164 12.84 123.39 32.324l-10.773 20.961c-36.457-18.598-76.754-28.781-117.64-29.961-31.734 59.629-12.102 133.58 45.02 169.74 36.309 22.879 75.867 40.297 117.34 51.512l-71.289-71.289 16.68-16.68 97.121 97.121c18.008 2.9531 36.309 4.7227 54.613 5.3125l-109.52-109.52 16.68-16.68 126.63 126.79h49.301l-156.16-156.16c-14.316-14.316-30.258-27.012-47.527-37.934l12.547-19.926c18.598 11.809 36.016 25.535 51.512 41.18l176.53 176.23c4.5742 4.5742 4.5742 12.102 0 16.68-2.3594 2.3594-5.6094 3.543-8.8555 3.543zm-335.2 59.039-16.828 118.08h47.086l18.156-118.08zm-276.02-460.52c-11.219 0-22.289-2.6562-32.324-7.6758l-4.8711-2.3633c-2.3633-1.1797-4.8711-1.7695-7.5273-1.7695-9.2969 0-16.828 7.5273-16.828 16.828v23.91c11.367-3.8359 23.469-5.6094 35.426-5.3125h60.957l6.6406-36.898c-11.949 8.707-26.414 13.281-41.473 13.281zm191.59 375.79c-46.938-21.992-79.41-66.125-86.348-117.49l-23.465 2.9492c7.8242 59.336 45.461 110.7 99.926 135.94zm-52.25-399.41h35.426v-23.617h-82.656v23.617c0 12.988 10.629 23.617 23.617 23.617 12.988-0.003906 23.613-10.629 23.613-23.617z" fill="#cad1cf"/>
</svg>
